# xmcd
#
# Track frame offsets: 
#        150
#        21538
#        43951
#        59206
#        78934
#        98761
#        116042
#        137718
#        157903
#        188609
#
# Disc length: 2770 seconds
#
# Revision: 1
# Processed by: cddbd v1.5.2PL0 Copyright (c) Steve Scherf et al.
# Submitted via: ExactAudioCopy v0.99pb5
#
DISCID=880ad00a
DTITLE=Myron and E With The Soul Investigators - Broadway 
DYEAR=2013
DGENRE=Soul
TTITLE0=Turn Back 
TTITLE1=On Broadway 
TTITLE2=If I Gave You My Love 
TTITLE3=Everyday Love 
TTITLE4=I Can't Let You Get Away
TTITLE5=Cold Game 
TTITLE6=Do It Do It Disco 
TTITLE7=Back N Forth 
TTITLE8=Going In Circles 
TTITLE9=They Don't Know
EXTD=
EXTT0=
EXTT1=
EXTT2=
EXTT3=
EXTT4=
EXTT5=
EXTT6=
EXTT7=
EXTT8=
EXTT9=
PLAYORDER=
